<svg id="surface1" xmlns="http://www.w3.org/2000/svg" width="28.27" height="35.682" viewBox="0 0 28.27 35.682">
  <path id="Path_2070" data-name="Path 2070" d="M19.729.276A.863.863,0,0,0,19.108,0H5.189A4.709,4.709,0,0,0,.5,4.68V31a4.709,4.709,0,0,0,4.689,4.68H24.081A4.709,4.709,0,0,0,28.77,31V10.1a.928.928,0,0,0-.25-.6Zm.25,2.767,5.887,6.18H22.039a2.053,2.053,0,0,1-2.06-2.051Zm4.1,30.916H5.189A2.985,2.985,0,0,1,2.224,31V4.68A2.985,2.985,0,0,1,5.189,1.724H18.255V7.171a3.771,3.771,0,0,0,3.784,3.775h5.007V31A2.98,2.98,0,0,1,24.081,33.959Zm0,0" transform="translate(-0.5)" fill="#fff"/>
  <path id="Path_2071" data-name="Path 2071" d="M104.221,401.934H90.034a.862.862,0,0,0,0,1.724h14.2a.862.862,0,1,0-.009-1.724Zm0,0" transform="translate(-82.992 -373.922)" fill="#fff"/>
  <path id="Path_2072" data-name="Path 2072" d="M161.64,214.3a.859.859,0,0,0-1.215,0l-1.888,1.888-1.879-1.888a.859.859,0,1,0-1.215,1.216l1.879,1.879-1.888,1.888a.859.859,0,0,0,0,1.215.847.847,0,0,0,.612.25.882.882,0,0,0,.612-.25l1.879-1.879,1.879,1.879a.847.847,0,0,0,.612.25.882.882,0,0,0,.612-.25.858.858,0,0,0,0-1.215l-1.887-1.879,1.879-1.879A.861.861,0,0,0,161.64,214.3Zm0,0" transform="translate(-144.402 -199.128)" fill="#fff"/>
  <path id="Path_2073" data-name="Path 2073" d="M86.083,136.164a8.783,8.783,0,1,0,8.783,8.783A8.791,8.791,0,0,0,86.083,136.164Zm0,15.841a7.059,7.059,0,1,1,7.059-7.059A7.062,7.062,0,0,1,86.083,152.005Zm0,0" transform="translate(-71.948 -126.674)" fill="#fff"/>
</svg>
