<svg xmlns="http://www.w3.org/2000/svg" width="50.605" height="50.608" viewBox="0 0 50.605 50.608">
  <g id="Action_Point" data-name="Action Point" transform="translate(-0.013 0)">
    <circle id="Ellipse_25" data-name="Ellipse 25" cx="0.955" cy="0.955" r="0.955" transform="translate(20.065 31.988)"/>
    <path id="Path_2168" data-name="Path 2168" d="M40.013,126.988v3.954a.988.988,0,0,0,.988.988H69.567a.988.988,0,0,0,.988-.988v-3.954a.988.988,0,0,0-.988-.988H41A.988.988,0,0,0,40.013,126.988Zm10.477.988H68.579v1.977H50.49Zm-8.5,0h6.524v1.977H41.99Z" transform="translate(-36.046 -113.546)"/>
    <path id="Path_2169" data-name="Path 2169" d="M41,207.977H69.567a.988.988,0,0,0,0-1.977H41a.988.988,0,0,0,0,1.977Z" transform="translate(-36.046 -185.638)"/>
    <path id="Path_2170" data-name="Path 2170" d="M41,247.977H69.567a.988.988,0,1,0,0-1.977H41a.988.988,0,1,0,0,1.977Z" transform="translate(-36.046 -221.685)"/>
    <path id="Path_2171" data-name="Path 2171" d="M41,287.977H57.409a.988.988,0,0,0,0-1.977H41a.988.988,0,0,0,0,1.977Z" transform="translate(-36.046 -257.731)"/>
    <path id="Path_2172" data-name="Path 2172" d="M41,327.977H53.456a.988.988,0,1,0,0-1.977H41a.988.988,0,1,0,0,1.977Z" transform="translate(-36.046 -293.777)"/>
    <path id="Path_2173" data-name="Path 2173" d="M127,371.931h5.042a4.942,4.942,0,1,0,0-1.977H127a.988.988,0,0,0,0,1.977Zm9.884-1.977h-2.8a2.965,2.965,0,1,1,0,1.977h2.8a.988.988,0,1,0,0-1.977Z" transform="translate(-113.546 -329.824)"/>
    <path id="Path_2174" data-name="Path 2174" d="M311.978,61.977a.988.988,0,1,0,0-1.977H310a.988.988,0,1,0,0,1.977Z" transform="translate(-278.458 -54.069)"/>
    <path id="Path_2175" data-name="Path 2175" d="M251.978,61.977a.988.988,0,0,0,0-1.977H250a.988.988,0,1,0,0,1.977Z" transform="translate(-224.388 -54.069)"/>
    <path id="Path_2176" data-name="Path 2176" d="M191.978,61.977a.988.988,0,0,0,0-1.977H190a.988.988,0,1,0,0,1.977Z" transform="translate(-170.319 -54.069)"/>
    <circle id="Ellipse_26" data-name="Ellipse 26" cx="0.955" cy="0.955" r="0.955" transform="translate(18.155 48.22)"/>
    <path id="Path_2177" data-name="Path 2177" d="M1,50.607H14.938a.988.988,0,1,0,0-1.977H1.99V9.884H8.909A.988.988,0,0,0,9.9,8.9V1.977H36.486V29.915c-.448.53-.867,1-1.229,1.368l-2.1-2.1a4.938,4.938,0,0,0-6.99,0l-1.4,1.4a.988.988,0,0,0,0,1.4L36.486,43.695v4.936H23.834a.988.988,0,1,0,0,1.977h13.64a.988.988,0,0,0,.988-.988V45.671l.29.29a.989.989,0,0,0,1.4,0l1.4-1.4a4.94,4.94,0,0,0,0-6.989l-2.1-2.1a37.792,37.792,0,0,1,8.166-5.805,4.954,4.954,0,1,0-6.5-6.534A26.441,26.441,0,0,1,38.463,27.4V.988A.988.988,0,0,0,37.474,0H8.909a1,1,0,0,0-.7.29L.3,8.2a.993.993,0,0,0-.29.7V49.619A.988.988,0,0,0,1,50.607ZM40.15,38.972a2.964,2.964,0,0,1,0,4.194l-.7.7L26.871,31.284l.7-.7a2.962,2.962,0,0,1,4.194,0Zm-1.9-8.083a36.74,36.74,0,0,0,4.68-6.95,2.977,2.977,0,1,1,3.9,3.922,38.947,38.947,0,0,0-8.775,6.22l-1.4-1.4c.469-.479,1.016-1.094,1.595-1.792ZM7.92,3.375V7.907H3.388Z"/>
  </g>
</svg>
