<svg id="surface1" xmlns="http://www.w3.org/2000/svg" width="28.27" height="35.682" viewBox="0 0 28.27 35.682">
  <path id="Path_2074" data-name="Path 2074" d="M19.729.276A.863.863,0,0,0,19.108,0H5.189A4.709,4.709,0,0,0,.5,4.68V31a4.709,4.709,0,0,0,4.689,4.68H24.081A4.709,4.709,0,0,0,28.77,31V10.1a.928.928,0,0,0-.25-.6Zm.25,2.767,5.887,6.18H22.039a2.053,2.053,0,0,1-2.06-2.051Zm4.1,30.916H5.189A2.985,2.985,0,0,1,2.224,31V4.68A2.985,2.985,0,0,1,5.189,1.724H18.255V7.171a3.771,3.771,0,0,0,3.784,3.775h5.007V31A2.98,2.98,0,0,1,24.081,33.959Zm0,0" transform="translate(-0.5)" fill="#fff"/>
  <path id="Path_2075" data-name="Path 2075" d="M104.221,401.934H90.034a.862.862,0,1,0,0,1.724h14.2a.862.862,0,1,0-.009-1.724Zm0,0" transform="translate(-82.992 -373.922)" fill="#fff"/>
  <path id="Path_2076" data-name="Path 2076" d="M116.4,177.674v2.008h-.276a.862.862,0,0,0,0,1.724h10.55a.862.862,0,0,0,0-1.724H126.4v-2.008a4.962,4.962,0,0,0-2.181-4.111,4.984,4.984,0,0,0,2.181-4.111v-2.008h.276a.862.862,0,0,0,0-1.724h-10.55a.862.862,0,1,0,0,1.724h.276v2.008a4.962,4.962,0,0,0,2.181,4.111A4.962,4.962,0,0,0,116.4,177.674Zm3.991,2.008.577-.577a.562.562,0,0,1,.776,0l.578.586h-1.931Zm4.284-12.239v2.008c0,.052-.026.095-.026.146h-6.49c0-.052-.026-.095-.026-.146v-2.008Zm-5.93,3.879h5.309a3.244,3.244,0,0,1-5.309,0Zm2.655,3.1a3.274,3.274,0,0,1,3.275,3.249v1.914l-1.689-1.715a2.259,2.259,0,0,0-3.249,0l-1.612,1.637v-1.836A3.273,3.273,0,0,1,121.4,174.424Zm0,0" transform="translate(-107.268 -154.17)" fill="#fff"/>
</svg>
