<?xml version="1.0" encoding="utf-8"?>
<!-- Generator: Adobe Illustrator 25.0.1, SVG Export Plug-In . SVG Version: 6.00 Build 0)  -->
<svg version="1.1" id="Layer_1" xmlns="http://www.w3.org/2000/svg" xmlns:xlink="http://www.w3.org/1999/xlink" x="0px" y="0px"
	 viewBox="0 0 368 368" style="enable-background:new 0 0 368 368;" xml:space="preserve">
<style type="text/css">
	.st0{fill:#FFFFFF;}
</style>
<path class="st0" d="M10.8,368c-6,0-10.8-4.9-10.8-10.8V10.8C0,4.9,4.9,0,10.8,0H184c2.9,0,5.7,1.2,7.7,3.2l78.7,78.7
	c2,2,3.2,4.8,3.2,7.7v68.5c15.9,1.6,31.3,6.9,44.8,15.3l30-42.8c2-2.9,5.3-4.6,8.9-4.6c2.2,0,4.4,0.7,6.2,1.9
	c4.9,3.4,6.1,10.2,2.7,15.1l-30.7,43.8c20.8,19.9,32.6,47.4,32.6,76c0,58.1-47.2,105.3-105.3,105.3L10.8,368L10.8,368z M262.7,179.1
	c-46.1,0-83.6,37.5-83.6,83.6s37.5,83.6,83.6,83.6s83.6-37.5,83.6-83.6c0-21.8-8.3-42.3-23.5-58l-67,95.7c-1.8,2.6-4.7,4.3-7.9,4.6
	c-0.3,0-0.6,0-0.9,0c-2.9,0-5.6-1.1-7.7-3.2l-31.5-31.5c-2-2-3.2-4.8-3.2-7.7s1.1-5.6,3.2-7.7s4.8-3.2,7.7-3.2s5.6,1.1,7.7,3.2
	l22.4,22.4L306,191C292.8,183.3,278,179.1,262.7,179.1z M199,346.4c-26.2-19.9-41.5-50.5-41.5-83.6c0-26.7,10-52.1,28.2-71.6
	c17.5-18.8,40.9-30.4,66.2-33v-42h-83.6c-6,0-10.8-4.9-10.8-10.8V21.6H21.6v324.7L199,346.4L199,346.4z M251.9,94.5V94l-72.4-72.4
	h-0.4v72.8L251.9,94.5L251.9,94.5z"/>
</svg>
