<svg id="calendar_3_" data-name="calendar (3)" xmlns="http://www.w3.org/2000/svg" width="35.682" height="35.682" viewBox="0 0 35.682 35.682">
  <g id="Group_336" data-name="Group 336" transform="translate(4.182 16.866)">
    <g id="Group_335" data-name="Group 335">
      <path id="Path_2062" data-name="Path 2062" d="M73.729,242H61.045a1.045,1.045,0,0,0,0,2.091H73.729a1.045,1.045,0,0,0,0-2.091Z" transform="translate(-60 -242)" fill="#fff"/>
    </g>
  </g>
  <g id="Group_338" data-name="Group 338" transform="translate(4.182 25.229)">
    <g id="Group_337" data-name="Group 337">
      <path id="Path_2063" data-name="Path 2063" d="M69.408,362H61.045a1.045,1.045,0,1,0,0,2.091h8.363a1.045,1.045,0,1,0,0-2.091Z" transform="translate(-60 -362)" fill="#fff"/>
    </g>
  </g>
  <g id="Group_340" data-name="Group 340" transform="translate(4.182 29.41)">
    <g id="Group_339" data-name="Group 339">
      <path id="Path_2064" data-name="Path 2064" d="M69.408,422H61.045a1.045,1.045,0,1,0,0,2.091h8.363a1.045,1.045,0,1,0,0-2.091Z" transform="translate(-60 -422)" fill="#fff"/>
    </g>
  </g>
  <g id="Group_342" data-name="Group 342" transform="translate(4.182 21.047)">
    <g id="Group_341" data-name="Group 341">
      <path id="Path_2065" data-name="Path 2065" d="M69.408,302H61.045a1.045,1.045,0,1,0,0,2.091h8.363a1.045,1.045,0,1,0,0-2.091Z" transform="translate(-60 -302)" fill="#fff"/>
    </g>
  </g>
  <g id="Group_344" data-name="Group 344" transform="translate(16.866 10.454)">
    <g id="Group_343" data-name="Group 343">
      <path id="Path_2066" data-name="Path 2066" d="M247.227,150h-4.182a1.045,1.045,0,1,0,0,2.091h4.182a1.045,1.045,0,1,0,0-2.091Z" transform="translate(-242 -150)" fill="#fff"/>
    </g>
  </g>
  <g id="Group_346" data-name="Group 346" transform="translate(0 0)">
    <g id="Group_345" data-name="Group 345">
      <path id="Path_2067" data-name="Path 2067" d="M27.319,16.924V6.093A3.115,3.115,0,0,0,26.4,3.875L23.444.919A3.115,3.115,0,0,0,21.226,0H3.136A3.14,3.14,0,0,0,0,3.136v29.41a3.14,3.14,0,0,0,3.136,3.136H26.274a9.408,9.408,0,0,0,1.045-18.759ZM21.047,2.091a1.141,1.141,0,0,1,.919.306l2.957,2.957a1.141,1.141,0,0,1,.306.919H21.047ZM3.136,33.592a1.047,1.047,0,0,1-1.045-1.045V3.136A1.047,1.047,0,0,1,3.136,2.091h15.82V7.318A1.045,1.045,0,0,0,20,8.363h5.227v8.561a9.4,9.4,0,0,0-4.861,16.668Zm23.138,0a7.318,7.318,0,1,1,7.318-7.318A7.326,7.326,0,0,1,26.274,33.592Z" transform="translate(0 0)" fill="#fff"/>
    </g>
  </g>
  <g id="Group_350" data-name="Group 350" transform="translate(4.182 4.182)">
    <g id="Group_349" data-name="Group 349">
      <path id="Path_2069" data-name="Path 2069" d="M69.408,60H61.045A1.045,1.045,0,0,0,60,61.045v8.363a1.045,1.045,0,0,0,1.045,1.045h8.363a1.045,1.045,0,0,0,1.045-1.045V61.045A1.045,1.045,0,0,0,69.408,60Zm-1.045,8.363H62.091V62.091h6.272Z" transform="translate(-60 -60)" fill="#fff"/>
    </g>
  </g>
  <path id="close_5_" data-name="close (5)" d="M4.89,3.677,7.165,1.4a.643.643,0,0,0,0-.91l-.3-.3a.643.643,0,0,0-.91,0L3.677,2.463,1.4.188a.643.643,0,0,0-.91,0l-.3.3a.643.643,0,0,0,0,.91L2.464,3.677.189,5.951a.643.643,0,0,0,0,.91l.3.3a.643.643,0,0,0,.91,0L3.677,4.89,5.952,7.164a.643.643,0,0,0,.91,0l.3-.3a.643.643,0,0,0,0-.91Zm0,0" transform="translate(22.517 22.587)" fill="#fff"/>
</svg>
