<svg xmlns="http://www.w3.org/2000/svg" width="33.154" height="35.682" viewBox="0 0 33.154 35.682">
  <g id="timer_1_" data-name="timer (1)" transform="translate(0 0)">
    <path id="Path_2077" data-name="Path 2077" d="M105.388,145.339h7.361a.7.7,0,1,0,0-1.394h-7.361a.7.7,0,1,0,0,1.394Zm0,0" transform="translate(-97.43 -133.913)" fill="#fff"/>
    <path id="Path_2078" data-name="Path 2078" d="M105.388,205.6H110.8a.7.7,0,1,0,0-1.394h-5.413a.7.7,0,1,0,0,1.394Zm0,0" transform="translate(-97.43 -189.975)" fill="#fff"/>
    <path id="Path_2079" data-name="Path 2079" d="M108.152,264.473h-2.765a.7.7,0,0,0,0,1.394h2.765a.7.7,0,0,0,0-1.394Zm0,0" transform="translate(-97.43 -246.041)" fill="#fff"/>
    <path id="Path_2080" data-name="Path 2080" d="M107.432,324.734h-2.044a.7.7,0,1,0,0,1.394h2.044a.7.7,0,1,0,0-1.394Zm0,0" transform="translate(-97.43 -302.103)" fill="#fff"/>
    <path id="Path_2081" data-name="Path 2081" d="M56.907,170.869a.691.691,0,0,0-.91-.376.687.687,0,0,0-.12.064.666.666,0,0,0-.192.192.7.7,0,0,0-.064.12.726.726,0,0,0-.04.13.683.683,0,0,0-.014.136.674.674,0,0,0,.014.136.7.7,0,0,0,.04.13.69.69,0,0,0,.064.121.675.675,0,0,0,.192.192.652.652,0,0,0,.12.064.723.723,0,0,0,.13.041.759.759,0,0,0,.136.013.771.771,0,0,0,.137-.013.758.758,0,0,0,.13-.041.674.674,0,0,0,.12-.064.65.65,0,0,0,.106-.087.671.671,0,0,0,.151-.227.659.659,0,0,0,.04-.13.694.694,0,0,0,.014-.136.7.7,0,0,0-.014-.136A.691.691,0,0,0,56.907,170.869Zm0,0" transform="translate(-51.729 -158.561)" fill="#fff"/>
    <path id="Path_2082" data-name="Path 2082" d="M30.715,17.253l1.292-1.546a1.787,1.787,0,0,0-2.742-2.291l-1.379,1.65a10.792,10.792,0,0,0-3.359-1.153V12.5h0a1.614,1.614,0,1,0,0-3.229H23.437V6.656a2.927,2.927,0,0,0-2.924-2.923h-.606v-.77A2.966,2.966,0,0,0,16.944,0H4.4A3.907,3.907,0,0,0,.5,3.9V24.069a2.965,2.965,0,0,0,2.962,2.962h.876v.37a2.927,2.927,0,0,0,2.924,2.924h6.014a10.959,10.959,0,0,0,20.378-5.6,10.849,10.849,0,0,0-2.939-7.468Zm-.38-2.944a.394.394,0,0,1,.554-.049.393.393,0,0,1,.049.552h0L29.7,16.294l-.039-.031q-.113-.093-.228-.183l-.05-.04q-.138-.107-.28-.209l-.025-.019Zm-7.2-.541-.119,0h-.028q-.292-.008-.586,0h-.038l-.112,0V12.5h.881Zm1.616-2.884a.221.221,0,0,1-.221.221H20.856a.221.221,0,0,1,0-.441h3.673A.221.221,0,0,1,24.75,10.885ZM12.57,28.932H7.262a1.531,1.531,0,0,1-1.53-1.53V15.363a.7.7,0,0,0-1.394,0V25.638H3.462a1.57,1.57,0,0,1-1.568-1.568V3.9A2.512,2.512,0,0,1,4.4,1.394H16.944a1.57,1.57,0,0,1,1.569,1.569v.77H7.262A2.927,2.927,0,0,0,4.338,6.656V9.788a.7.7,0,0,0,1.394,0V6.656a1.531,1.531,0,0,1,1.53-1.529H20.513a1.531,1.531,0,0,1,1.53,1.529V9.27H20.856a1.614,1.614,0,1,0,0,3.229l0,1.415-.064.012-.111.02-.124.024-.113.023-.12.026-.115.026-.118.028-.116.029-.113.03-.119.032-.106.031c-.111.032-.221.065-.331.1l-.01,0-.131.044-.094.032-.127.046-.1.035-.125.048-.1.038-.123.05-.1.04-.122.053-.1.042-.121.055-.093.044-.121.058-.092.046-.12.061-.09.048-.12.064-.086.048-.121.068-.08.047-.125.074-.06.037q-.155.095-.307.195l-.023.015-.12.082-.077.052-.111.079-.084.06-.106.078L16.053,16l-.1.08-.085.067-.1.081-.085.07-.1.083-.084.073-.1.085-.082.074-.1.087-.081.076-.093.089-.079.078-.092.092-.076.079-.092.1-.064.07-.1.1A10.963,10.963,0,0,0,12.2,27.9l.006.02c.019.062.038.123.058.184l.031.1.035.1c.02.059.041.118.063.177l.005.014c.053.146.109.292.169.436Zm10.123,5.357a9.585,9.585,0,0,1-8.976-6.254L13.7,28c-.017-.048-.034-.1-.051-.145s-.032-.092-.047-.139l-.03-.093a9.626,9.626,0,0,1-.429-2.282l0-.037q-.007-.127-.012-.255c0-.012,0-.025,0-.037,0-.1,0-.192,0-.289a9.556,9.556,0,0,1,5.317-8.579l.008,0,.093-.044.1-.05h0a9.554,9.554,0,0,1,2.983-.831,9.7,9.7,0,0,1,2.059-.006l.063.006a9.444,9.444,0,0,1,3.928,1.343q.109.067.215.136a9.612,9.612,0,0,1,1.4,1.1,9.479,9.479,0,0,1,2.967,6.925,9.578,9.578,0,0,1-9.567,9.567Zm0,0" transform="translate(-0.5 0)" fill="#fff"/>
    <path id="Path_2083" data-name="Path 2083" d="M208.544,236.059a8.27,8.27,0,1,0,8.27,8.27A8.279,8.279,0,0,0,208.544,236.059Zm0,15.145a6.876,6.876,0,1,1,6.876-6.876A6.884,6.884,0,0,1,208.544,251.2Zm0,0" transform="translate(-186.351 -219.607)" fill="#fff"/>
    <path id="Path_2084" data-name="Path 2084" d="M277.416,287.843a.7.7,0,0,0-.973.16l-2.566,3.576-2.187-.614a.7.7,0,0,0-.377,1.342l2.657.746a.689.689,0,0,0,.188.026.7.7,0,0,0,.566-.291l2.851-3.973a.7.7,0,0,0-.16-.972Zm0,0" transform="translate(-251.967 -267.661)" fill="#fff"/>
    <path id="Path_2085" data-name="Path 2085" d="M309.631,265.4a.7.7,0,0,0,.7-.7v-.644a.7.7,0,1,0-1.394,0v.644A.7.7,0,0,0,309.631,265.4Zm0,0" transform="translate(-287.439 -245.012)" fill="#fff"/>
    <path id="Path_2086" data-name="Path 2086" d="M309.631,416.832a.7.7,0,0,0-.7.7v.644a.7.7,0,0,0,1.394,0v-.644A.7.7,0,0,0,309.631,416.832Zm0,0" transform="translate(-287.439 -387.782)" fill="#fff"/>
    <path id="Path_2087" data-name="Path 2087" d="M382.387,344.719h-.644a.7.7,0,1,0,0,1.394h.644a.7.7,0,0,0,0-1.394Zm0,0" transform="translate(-354.525 -320.695)" fill="#fff"/>
    <path id="Path_2088" data-name="Path 2088" d="M228.922,344.719h-.644a.7.7,0,1,0,0,1.394h.644a.7.7,0,1,0,0-1.394Zm0,0" transform="translate(-211.756 -320.695)" fill="#fff"/>
  </g>
</svg>
