<svg id="calendar_3_" data-name="calendar (3)" xmlns="http://www.w3.org/2000/svg" width="26" height="26" viewBox="0 0 26 26">
  <g id="Group_336" data-name="Group 336" transform="translate(3.047 12.289)">
    <g id="Group_335" data-name="Group 335">
      <path id="Path_2062" data-name="Path 2062" d="M70,242H60.762a.762.762,0,0,0,0,1.523H70A.762.762,0,0,0,70,242Z" transform="translate(-60 -242)" fill="#999"/>
    </g>
  </g>
  <g id="Group_338" data-name="Group 338" transform="translate(3.047 18.383)">
    <g id="Group_337" data-name="Group 337">
      <path id="Path_2063" data-name="Path 2063" d="M66.855,362H60.762a.762.762,0,0,0,0,1.523h6.094a.762.762,0,0,0,0-1.523Z" transform="translate(-60 -362)" fill="#999"/>
    </g>
  </g>
  <g id="Group_340" data-name="Group 340" transform="translate(3.047 21.43)">
    <g id="Group_339" data-name="Group 339">
      <path id="Path_2064" data-name="Path 2064" d="M66.855,422H60.762a.762.762,0,0,0,0,1.523h6.094a.762.762,0,0,0,0-1.523Z" transform="translate(-60 -422)" fill="#999"/>
    </g>
  </g>
  <g id="Group_342" data-name="Group 342" transform="translate(3.047 15.336)">
    <g id="Group_341" data-name="Group 341">
      <path id="Path_2065" data-name="Path 2065" d="M66.855,302H60.762a.762.762,0,0,0,0,1.523h6.094a.762.762,0,0,0,0-1.523Z" transform="translate(-60 -302)" fill="#999"/>
    </g>
  </g>
  <g id="Group_344" data-name="Group 344" transform="translate(12.289 7.617)">
    <g id="Group_343" data-name="Group 343">
      <path id="Path_2066" data-name="Path 2066" d="M245.809,150h-3.047a.762.762,0,0,0,0,1.523h3.047a.762.762,0,0,0,0-1.523Z" transform="translate(-242 -150)" fill="#999"/>
    </g>
  </g>
  <g id="Group_346" data-name="Group 346" transform="translate(0 0)">
    <g id="Group_345" data-name="Group 345">
      <path id="Path_2067" data-name="Path 2067" d="M19.906,12.332V4.44a2.27,2.27,0,0,0-.669-1.616L17.083.669A2.27,2.27,0,0,0,15.467,0H2.285A2.288,2.288,0,0,0,0,2.285v21.43A2.288,2.288,0,0,0,2.285,26H19.145a6.855,6.855,0,0,0,.762-13.668ZM15.336,1.523a.831.831,0,0,1,.669.223L18.16,3.9a.831.831,0,0,1,.223.669H15.336ZM2.285,24.477a.763.763,0,0,1-.762-.762V2.285a.763.763,0,0,1,.762-.762H13.813V5.332a.762.762,0,0,0,.762.762h3.809v6.238a6.852,6.852,0,0,0-3.542,12.145Zm16.859,0a5.332,5.332,0,1,1,5.332-5.332A5.338,5.338,0,0,1,19.145,24.477Z" transform="translate(0 0)" fill="#999"/>
    </g>
  </g>
  <g id="Group_350" data-name="Group 350" transform="translate(3.047 3.047)">
    <g id="Group_349" data-name="Group 349">
      <path id="Path_2069" data-name="Path 2069" d="M66.855,60H60.762a.762.762,0,0,0-.762.762v6.094a.762.762,0,0,0,.762.762h6.094a.762.762,0,0,0,.762-.762V60.762A.762.762,0,0,0,66.855,60Zm-.762,6.094h-4.57v-4.57h4.57Z" transform="translate(-60 -60)" fill="#999"/>
    </g>
  </g>
  <path id="close_5_" data-name="close (5)" d="M3.563,2.679,5.221,1.021a.469.469,0,0,0,0-.663L5,.138a.469.469,0,0,0-.663,0L2.679,1.795,1.022.137a.469.469,0,0,0-.663,0L.138.358a.469.469,0,0,0,0,.663L1.8,2.679.138,4.336A.469.469,0,0,0,.138,5l.221.221a.469.469,0,0,0,.663,0L2.679,3.563,4.337,5.22A.469.469,0,0,0,5,5.22L5.221,5a.469.469,0,0,0,0-.663Zm0,0" transform="translate(16.407 16.458)" fill="#999"/>
</svg>
