<?xml version="1.0" encoding="utf-8"?>
<!-- Generator: Adobe Illustrator 25.0.1, SVG Export Plug-In . SVG Version: 6.00 Build 0)  -->
<svg version="1.1" id="calendar_3_" xmlns="http://www.w3.org/2000/svg" xmlns:xlink="http://www.w3.org/1999/xlink" x="0px"
	 y="0px" viewBox="0 0 26 26" style="enable-background:new 0 0 26 26;" xml:space="preserve">
<style type="text/css">
	.st0{fill:#FFFFFF;}
</style>
<g id="Group_336" transform="translate(3.047 12.289)">
	<g id="Group_335">
		<path id="Path_2062" class="st0" d="M10,0H0.8C0.3,0,0,0.4,0,0.8c0,0.4,0.3,0.7,0.7,0.7H10c0.4,0,0.7-0.4,0.7-0.8
			C10.7,0.3,10.4,0,10,0z"/>
	</g>
</g>
<g id="Group_338" transform="translate(3.047 18.383)">
	<g id="Group_337">
		<path id="Path_2063" class="st0" d="M6.9,0H0.8C0.3,0,0,0.4,0,0.8c0,0.4,0.3,0.7,0.7,0.7h6.1c0.4,0,0.7-0.4,0.7-0.8
			C7.6,0.3,7.3,0,6.9,0L6.9,0z"/>
	</g>
</g>
<g id="Group_340" transform="translate(3.047 21.43)">
	<g id="Group_339">
		<path id="Path_2064" class="st0" d="M6.9,0H0.8C0.3,0,0,0.4,0,0.8c0,0.4,0.3,0.7,0.7,0.7h6.1c0.4,0,0.7-0.4,0.7-0.8
			C7.6,0.3,7.3,0,6.9,0L6.9,0z"/>
	</g>
</g>
<g id="Group_342" transform="translate(3.047 15.336)">
	<g id="Group_341">
		<path id="Path_2065" class="st0" d="M6.9,0H0.8C0.3,0,0,0.4,0,0.8c0,0.4,0.3,0.7,0.7,0.7h6.1c0.4,0,0.7-0.4,0.7-0.8
			C7.6,0.3,7.3,0,6.9,0L6.9,0z"/>
	</g>
</g>
<g id="Group_344" transform="translate(12.289 7.617)">
	<g id="Group_343">
		<path id="Path_2066" class="st0" d="M3.8,0h-3C0.3,0,0,0.4,0,0.8c0,0.4,0.3,0.7,0.7,0.7h3c0.4,0,0.7-0.4,0.7-0.8
			C4.5,0.3,4.2,0,3.8,0z"/>
	</g>
</g>
<g id="Group_346" transform="translate(0 0)">
	<g id="Group_345">
		<path id="Path_2067" class="st0" d="M19.9,12.3V4.4c0-0.6-0.2-1.2-0.7-1.6l-2.2-2.2c-0.4-0.4-1-0.7-1.6-0.7H2.3C1,0,0,1,0,2.3
			v21.4C0,25,1,26,2.3,26h16.9c3.8,0,6.9-3.1,6.9-6.9C26,15.7,23.4,12.7,19.9,12.3L19.9,12.3z M15.3,1.5c0.2,0,0.5,0.1,0.7,0.2
			l2.2,2.2c0.2,0.2,0.3,0.4,0.2,0.7h-3V1.5z M2.3,24.5c-0.4,0-0.8-0.3-0.8-0.8V2.3c0-0.4,0.3-0.8,0.8-0.8h11.5v3.8
			c0,0.4,0.3,0.8,0.8,0.8l0,0h3.8v6.2c-3.8,0.4-6.5,3.8-6.1,7.6c0.2,1.8,1.1,3.4,2.5,4.6L2.3,24.5z M19.1,24.5
			c-2.9,0-5.3-2.4-5.3-5.3s2.4-5.3,5.3-5.3s5.3,2.4,5.3,5.3v0C24.5,22.1,22.1,24.5,19.1,24.5L19.1,24.5z"/>
	</g>
</g>
<g id="Group_350" transform="translate(3.047 3.047)">
	<g id="Group_349">
		<path id="Path_2069" class="st0" d="M6.9,0H0.8C0.3,0,0,0.3,0,0.8c0,0,0,0,0,0v6.1c0,0.4,0.3,0.8,0.8,0.8c0,0,0,0,0,0h6.1
			c0.4,0,0.8-0.3,0.8-0.8l0,0V0.8C7.6,0.3,7.3,0,6.9,0C6.9,0,6.9,0,6.9,0z M6.1,6.1H1.5V1.5h4.6V6.1z"/>
	</g>
</g>
<path id="close_5_" class="st0" d="M20,19.1l1.7-1.7c0.2-0.2,0.2-0.5,0-0.7l-0.2-0.2c-0.2-0.2-0.5-0.2-0.7,0l-1.7,1.7l-1.7-1.7
	c-0.2-0.2-0.5-0.2-0.7,0l-0.2,0.2c-0.2,0.2-0.2,0.5,0,0.7l1.7,1.7l-1.7,1.7c-0.2,0.2-0.2,0.5,0,0.7c0,0,0,0,0,0l0.2,0.2
	c0.2,0.2,0.5,0.2,0.7,0l1.7-1.7l1.7,1.7c0.2,0.2,0.5,0.2,0.7,0l0.2-0.2c0.2-0.2,0.2-0.5,0-0.7L20,19.1z"/>
</svg>
