<?xml version="1.0" encoding="utf-8"?>
<!-- Generator: Adobe Illustrator 25.0.1, SVG Export Plug-In . SVG Version: 6.00 Build 0)  -->
<svg version="1.1" id="Layer_1" xmlns="http://www.w3.org/2000/svg" xmlns:xlink="http://www.w3.org/1999/xlink" x="0px" y="0px"
	 viewBox="0 0 26 26" style="enable-background:new 0 0 26 26;" xml:space="preserve">
<style type="text/css">
	.st0{fill:#FFFFFF;}
</style>
<g id="writing_1_" transform="translate(-0.007)">
	<path id="Path_2149" class="st0" d="M25.6,9.5l-1.3-1.3c-0.6-0.6-1.6-0.6-2.2,0l-2.7,2.7V2.3c0-1.3-1-2.3-2.3-2.3H2.3
		C1,0,0,1,0,2.3v21.4C0,25,1,26,2.3,26h14.9c1.3,0,2.3-1,2.3-2.3v-6l6.1-6C26.2,11,26.2,10.1,25.6,9.5z M16.5,18.5l-2.3,1.1l1.1-2.3
		l5.7-5.7l1.3,1.3L16.5,18.5z M17.9,23.7c0,0.4-0.3,0.8-0.8,0.8H2.3c-0.4,0-0.8-0.3-0.8-0.8V2.3c0-0.4,0.3-0.8,0.8-0.8h14.9
		c0.4,0,0.8,0.3,0.8,0.8v10.1c-4.2,4.2-3.9,3.9-4,4.1l-2,4.3c-0.2,0.4,0,0.8,0.4,1c0.2,0.1,0.4,0.1,0.6,0l4.3-2
		c0.2-0.1,0.2-0.1,0.7-0.6L17.9,23.7z M23.3,11.8L22,10.5l1.2-1.2l1.3,1.3L23.3,11.8z"/>
	<path id="Path_2150" class="st0" d="M4.1,6.4h11.4c0.4,0,0.8-0.3,0.8-0.7c0-0.4-0.3-0.8-0.7-0.8c0,0,0,0-0.1,0H4.1
		c-0.4,0-0.8,0.3-0.8,0.7C3.3,6.1,3.6,6.4,4.1,6.4C4,6.4,4.1,6.4,4.1,6.4z"/>
	<path id="Path_2151" class="st0" d="M4.1,10.5H13c0.4,0,0.8-0.3,0.8-0.7S13.5,9,13.1,9c0,0,0,0-0.1,0H4.1C3.6,9,3.3,9.3,3.3,9.7
		S3.6,10.5,4.1,10.5C4,10.5,4.1,10.5,4.1,10.5z"/>
	<path id="Path_2152" class="st0" d="M10.6,13.1H4.1c-0.4,0-0.8,0.3-0.8,0.7s0.3,0.8,0.7,0.8c0,0,0,0,0.1,0h6.5
		c0.4,0,0.8-0.3,0.8-0.7S11,13.1,10.6,13.1C10.6,13.1,10.6,13.1,10.6,13.1z"/>
</g>
</svg>
