<svg xmlns="http://www.w3.org/2000/svg" width="26" height="26.001" viewBox="0 0 26 26.001">
  <g id="writing_1_" data-name="writing (1)" transform="translate(-0.007)">
    <path id="Path_2149" data-name="Path 2149" d="M25.562,9.488,24.29,8.216a1.525,1.525,0,0,0-2.155,0l-2.679,2.679V2.285A2.288,2.288,0,0,0,17.172,0H2.292A2.288,2.288,0,0,0,.007,2.285v21.43A2.288,2.288,0,0,0,2.292,26H17.172a2.288,2.288,0,0,0,2.285-2.285V17.671l6.1-6.029A1.525,1.525,0,0,0,25.562,9.488Zm-9.11,9.01L14.16,19.567l1.068-2.289,5.686-5.686,1.257,1.257Zm1.482,5.218a.763.763,0,0,1-.762.762H2.292a.763.763,0,0,1-.762-.762V2.285a.763.763,0,0,1,.762-.762H17.172a.763.763,0,0,1,.762.762V12.418c-4.224,4.224-3.948,3.921-4.029,4.094l-2.011,4.309a.762.762,0,0,0,1.012,1.012l4.309-2.011c.158-.074.184-.12.718-.647Zm5.322-11.937-1.264-1.264,1.221-1.221,1.271,1.272Z" fill="#999"/>
    <path id="Path_2150" data-name="Path 2150" d="M65.769,98.523H77.144a.762.762,0,1,0,0-1.523H65.769a.762.762,0,1,0,0,1.523Z" transform="translate(-61.699 -92.074)" fill="#999"/>
    <path id="Path_2151" data-name="Path 2151" d="M65.769,178.523h8.938a.762.762,0,1,0,0-1.523H65.769a.762.762,0,1,0,0,1.523Z" transform="translate(-61.699 -168.011)" fill="#999"/>
    <path id="Path_2152" data-name="Path 2152" d="M72.269,257h-6.5a.762.762,0,1,0,0,1.523h6.5a.762.762,0,1,0,0-1.523Z" transform="translate(-61.699 -243.949)" fill="#999"/>
  </g>
</svg>
