<?xml version="1.0" encoding="utf-8"?>
<!-- Generator: Adobe Illustrator 25.0.1, SVG Export Plug-In . SVG Version: 6.00 Build 0)  -->
<svg version="1.1" id="Layer_1" xmlns="http://www.w3.org/2000/svg" xmlns:xlink="http://www.w3.org/1999/xlink" x="0px" y="0px"
	 viewBox="0 0 368 368" style="enable-background:new 0 0 368 368;" xml:space="preserve">
<style type="text/css">
	.st0{fill:#999999;}
</style>
<path class="st0" d="M51.8,368c-6,0-10.9-4.9-10.9-10.9c0-6,4.9-10.9,10.9-10.9h17.4V286c0-37.4,18.4-72.3,49.5-93.3l12.9-8.7
	l-12.9-8.7c-31-21-49.5-55.8-49.5-93.2V21.7H52c-5.7-0.2-10.3-4.8-10.4-10.6C41.4,5.2,46.1,0.2,52,0l261.3,0
	c5.7,0.2,10.3,4.8,10.4,10.6c0.1,2.9-1,5.7-3,7.8c-2,2.1-4.6,3.3-7.5,3.4l-17.2,0V82c-0.1,37.4-18.6,72.2-49.5,93.3l-12.8,8.7
	l12.8,8.7c31,21,49.5,55.8,49.5,93.2v60.3h17.4c6,0,10.9,4.9,10.9,10.9c0,6-4.9,10.9-10.9,10.9H51.8z M181.7,284.2
	c12.5,0,24.1,4.9,32.7,13.9l60,60.9v-73.1c-0.4-50.2-41.5-91.1-91.7-91.1h-10.5l0,0.7c-46,5.3-80.9,44-81.3,90.3l0,71.3l58-58.9
	c0.4-0.4,0.8-0.8,1.2-1.2C158.6,288.8,169.8,284.2,181.7,284.2z M181.6,307.1c-6.3,0-12.3,2.4-16.9,6.8l-17.6,17.6l-14,15.1h97.5
	l-32.1-32.5l-0.1-0.1C193.9,309.5,187.9,307.1,181.6,307.1z M108.2,134.4c6.1,8.6,13.5,16.1,22.2,22.2
	c15.4,10.8,33.5,16.5,52.2,16.5c29.6,0,57.5-14.5,74.5-38.7l11.6-16.6H96.5L108.2,134.4z M91.7,96.1h182v-9.7
	c0.2-0.9,0.6-2.4,0.6-4.4V21.7L91.1,21.6V82c0,2,0.4,3.5,0.6,4.4V96.1z"/>
</svg>
