<svg id="logout" xmlns="http://www.w3.org/2000/svg" width="16.067" height="16.013" viewBox="0 0 16.067 16.013">
  <g id="Group_354" data-name="Group 354" transform="translate(0 0)">
    <g id="Group_353" data-name="Group 353">
      <path id="Path_2132" data-name="Path 2132" d="M8.007,15.529H2a.667.667,0,0,1-.667-.667V2.852A.667.667,0,0,1,2,2.184h6a.667.667,0,0,0,0-1.334H2a2,2,0,0,0-2,2v12.01a2,2,0,0,0,2,2h6a.667.667,0,1,0,0-1.334Z" transform="translate(0 -0.85)" fill="#fff"/>
    </g>
  </g>
  <g id="Group_356" data-name="Group 356" transform="translate(5.338 3.336)">
    <g id="Group_355" data-name="Group 355">
      <path id="Path_2133" data-name="Path 2133" d="M180.63,111.36l-4.057-4a.667.667,0,0,0-.937.95l2.9,2.861h-7.768a.667.667,0,0,0,0,1.334h7.768l-2.9,2.861a.667.667,0,1,0,.937.95l4.057-4a.667.667,0,0,0,0-.95Z" transform="translate(-170.1 -107.165)" fill="#fff"/>
    </g>
  </g>
</svg>
