<?xml version="1.0" encoding="utf-8"?>
<!-- Generator: Adobe Illustrator 25.0.1, SVG Export Plug-In . SVG Version: 6.00 Build 0)  -->
<svg version="1.1" id="light" xmlns="http://www.w3.org/2000/svg" xmlns:xlink="http://www.w3.org/1999/xlink" x="0px" y="0px"
	 viewBox="0 0 512 512" style="enable-background:new 0 0 512 512;" xml:space="preserve">
<style type="text/css">
	.st0{fill:#999999;}
</style>
<g>
	<path class="st0" d="M371.5,512C294,512,231,449,231,371.5S294,231,371.5,231S512,294.1,512,371.5S449,512,371.5,512z M371.5,259.9
		c-61.5,0-111.6,50.1-111.6,111.6S310,483.1,371.5,483.1S483.1,433,483.1,371.5S433.1,259.9,371.5,259.9z"/>
	<path class="st0" d="M424,438.5c-3.3,0-6.4-1.1-9-3.1l-52.5-42c-3.4-2.8-5.4-6.9-5.4-11.3v-73.5c0-8,6.5-14.4,14.4-14.4
		c8,0,14.4,6.5,14.4,14.4v66.6l47.1,37.7c6.2,5,7.2,14.1,2.3,20.3C432.6,436.5,428.4,438.5,424,438.5z"/>
	<path class="st0" d="M56.5,449C25.3,449,0,423.7,0,392.5v-336C0,25.3,25.3,0,56.5,0h231.1c31,0,56.4,25.3,56.4,56.5v126
		c0,8-6.5,14.4-14.4,14.4c-8,0-14.4-6.5-14.4-14.4v-126c0-15.2-12.4-27.6-27.6-27.6H56.5c-15.2,0-27.6,12.4-27.6,27.6v336.1
		c0,15.2,12.4,27.6,27.6,27.6h126c8,0,14.4,6.5,14.4,14.4c0,8-6.5,14.4-14.4,14.4H56.5z"/>
	<path class="st0" d="M162.1,322.5c-0.5,0-1,0-1.5-0.1C105,316.6,63,270,63,214c0-60.1,48.9-109,109-109s109,48.9,109,109
		c0,8.2-6.6,15.1-14.4,15.1c-8.2,0-14.4-5.9-14.4-13.8V214c0-44.2-35.9-80.1-80.1-80.1S92,169.8,92,214c0,41.2,30.8,75.4,71.7,79.7
		c3.8,0.4,7.3,2.3,9.7,5.3s3.5,6.8,3.1,10.6C175.7,317,169.5,322.5,162.1,322.5z"/>
	<path class="st0" d="M105.1,295.3c-3.8,0-7.5-1.5-10.2-4.2s-4.2-6.4-4.2-10.2c0-3.9,1.5-7.5,4.2-10.2l62.6-62.6v-88.5
		c0-8,6.5-14.4,14.4-14.4c8,0,14.4,6.5,14.4,14.4V214c0,3.8-1.5,7.5-4.2,10.2L115.4,291C112.6,293.8,109,295.3,105.1,295.3z"/>
</g>
</svg>
