<svg xmlns="http://www.w3.org/2000/svg" width="44.262" height="45" viewBox="0 0 44.262 45">
  <g id="Review_meeting" data-name="Review meeting" transform="translate(-4)">
    <g id="Group_387" data-name="Group 387" transform="translate(4 6.639)">
      <g id="Group_386" data-name="Group 386" transform="translate(0)">
        <path id="Path_2166" data-name="Path 2166" d="M45.165,80.912a5.162,5.162,0,1,0-6.35.579,3.687,3.687,0,0,0-1.618,3.05V89.7H34.246V86.016a5.169,5.169,0,0,0-4.552-5.124,5.164,5.164,0,1,0-7.126,0,5.169,5.169,0,0,0-4.552,5.124V89.7H15.066V84.541a3.687,3.687,0,0,0-1.618-3.05,5.167,5.167,0,1,0-6.35-.579A3.685,3.685,0,0,0,4,84.541V95.607a3.7,3.7,0,0,0,2.951,3.614v11.14H8.426V99.3h6.639v10.328a.738.738,0,0,0,.738.738H20.23a.738.738,0,0,0,.738-.738V97.82h4.426v11.066H22.443v1.475H29.82v-1.475H26.869V97.82H31.3v11.8a.738.738,0,0,0,.738.738h4.426a.738.738,0,0,0,.738-.738V99.3h6.639v11.066h1.475V99.221a3.7,3.7,0,0,0,2.951-3.614V84.541A3.685,3.685,0,0,0,45.165,80.912Zm-7.23-3.748a3.689,3.689,0,1,1,3.689,3.689A3.693,3.693,0,0,1,37.934,77.164Zm-15.492,0a3.689,3.689,0,1,1,3.689,3.689A3.693,3.693,0,0,1,22.443,77.164Zm4.837,5.164-1.149,3.063-1.149-3.063Zm-7.788,3.689a3.693,3.693,0,0,1,3.689-3.689h.226l2.034,5.423a.738.738,0,0,0,1.382,0l2.033-5.423h.226a3.693,3.693,0,0,1,3.689,3.689V89.7H29.82a.738.738,0,0,0-.738.738v2.951h-5.9V90.443a.738.738,0,0,0-.738-.738H19.492ZM6.951,77.164a3.689,3.689,0,1,1,3.689,3.689A3.693,3.693,0,0,1,6.951,77.164Zm12.541,31.721H16.541V98.557a.738.738,0,0,0-.738-.738H7.689a2.216,2.216,0,0,1-2.213-2.213V84.541a2.216,2.216,0,0,1,2.213-2.213h3.689a2.216,2.216,0,0,1,2.213,2.213v5.9a.738.738,0,0,0,.738.738H21.7v2.213H11.377V86.754H9.9v7.377a.738.738,0,0,0,.738.738h6.639a2.216,2.216,0,0,1,2.213,2.213ZM31.378,96.344H20.885a3.684,3.684,0,0,0-.657-1.475H32.034A3.684,3.684,0,0,0,31.378,96.344Zm15.409-.738a2.216,2.216,0,0,1-2.213,2.213H36.459a.738.738,0,0,0-.738.738v10.328H32.77v-11.8a2.216,2.216,0,0,1,2.213-2.213h6.639a.738.738,0,0,0,.738-.738V86.754H40.885v6.639H30.557V91.18h7.377a.738.738,0,0,0,.738-.738v-5.9a2.216,2.216,0,0,1,2.213-2.213h3.689a2.216,2.216,0,0,1,2.213,2.213Z" transform="translate(-4 -72)"/>
      </g>
    </g>
    <g id="Group_389" data-name="Group 389" transform="translate(25.393 24.344)">
      <g id="Group_388" data-name="Group 388">
        <rect id="Rectangle_357" data-name="Rectangle 357" width="2" height="1" transform="translate(-0.394 0.156)"/>
      </g>
    </g>
    <g id="Group_391" data-name="Group 391" transform="translate(11.377)">
      <g id="Group_390" data-name="Group 390">
        <path id="Path_2167" data-name="Path 2167" d="M95.066,0H84.738A.738.738,0,0,0,84,.738V4.426a.738.738,0,0,0,.738.738h2.951V6.639a.738.738,0,0,0,1.18.59l2.754-2.066h3.443a.738.738,0,0,0,.738-.738V.738A.738.738,0,0,0,95.066,0Zm-.738,3.689H91.377a.737.737,0,0,0-.443.148l-1.77,1.328V4.426a.738.738,0,0,0-.738-.738H85.475V1.475h8.852Z" transform="translate(-84)"/>
      </g>
    </g>
    <g id="Group_393" data-name="Group 393" transform="translate(29.82 2.213)">
      <g id="Group_392" data-name="Group 392">
        <rect id="Rectangle_358" data-name="Rectangle 358" width="1" height="1" transform="translate(0.18 0.287)"/>
      </g>
    </g>
    <g id="Group_395" data-name="Group 395" transform="translate(32.77 2.213)">
      <g id="Group_394" data-name="Group 394">
        <rect id="Rectangle_359" data-name="Rectangle 359" width="1" height="1" transform="translate(0.229 0.287)"/>
      </g>
    </g>
    <g id="Group_397" data-name="Group 397" transform="translate(35.721 2.213)">
      <g id="Group_396" data-name="Group 396">
        <rect id="Rectangle_360" data-name="Rectangle 360" width="1" height="1" transform="translate(0.279 0.287)"/>
      </g>
    </g>
  </g>
</svg>
