<svg xmlns="http://www.w3.org/2000/svg" width="16.694" height="16.694" viewBox="0 0 16.694 16.694">
  <g id="Icon_feather-settings" data-name="Icon feather-settings" transform="translate(0.75 0.75)">
    <path id="Path_2012" data-name="Path 2012" d="M17.644,15.572A2.072,2.072,0,1,1,15.572,13.5,2.072,2.072,0,0,1,17.644,15.572Z" transform="translate(-7.975 -7.975)" fill="none" stroke="#fff" stroke-linecap="round" stroke-linejoin="round" stroke-width="1.5"/>
    <path id="Path_2013" data-name="Path 2013" d="M14.208,11.169a1.14,1.14,0,0,0,.228,1.257l.041.041a1.382,1.382,0,1,1-1.955,1.955l-.041-.041a1.149,1.149,0,0,0-1.948.815v.117a1.381,1.381,0,1,1-2.763,0v-.062a1.14,1.14,0,0,0-.746-1.043,1.14,1.14,0,0,0-1.257.228l-.041.041a1.382,1.382,0,1,1-1.955-1.955l.041-.041A1.149,1.149,0,0,0,3,10.534H2.881a1.381,1.381,0,1,1,0-2.763h.062a1.14,1.14,0,0,0,1.043-.746,1.14,1.14,0,0,0-.228-1.257l-.041-.041A1.382,1.382,0,1,1,5.672,3.772l.041.041a1.14,1.14,0,0,0,1.257.228h.055A1.14,1.14,0,0,0,7.716,3V2.881a1.381,1.381,0,1,1,2.763,0v.062a1.149,1.149,0,0,0,1.948.815l.041-.041a1.382,1.382,0,1,1,1.955,1.955l-.041.041a1.14,1.14,0,0,0-.228,1.257v.055a1.14,1.14,0,0,0,1.043.691h.117a1.381,1.381,0,1,1,0,2.763h-.062a1.14,1.14,0,0,0-1.043.691Z" transform="translate(-1.5 -1.5)" fill="none" stroke="#fff" stroke-linecap="round" stroke-linejoin="round" stroke-width="1.5"/>
  </g>
</svg>
