<?xml version="1.0" encoding="utf-8"?>
<!-- Generator: Adobe Illustrator 25.0.1, SVG Export Plug-In . SVG Version: 6.00 Build 0)  -->
<svg version="1.1" id="Layer_1" xmlns="http://www.w3.org/2000/svg" xmlns:xlink="http://www.w3.org/1999/xlink" x="0px" y="0px"
	 viewBox="0 0 42.2 50.6" style="enable-background:new 0 0 42.2 50.6;" xml:space="preserve">
<g id="document_3_" transform="translate(-40)">
	<g id="Group_358" transform="translate(50.122 36.269)">
		<g id="Group_357" transform="translate(0)">
			<path id="Path_2137" d="M2.5,0H0.8C0.4,0,0,0.4,0,0.8s0.4,0.8,0.8,0.8h1.7c0.5,0,0.8-0.4,0.8-0.8S3,0,2.5,0z"/>
		</g>
	</g>
	<g id="Group_360" transform="translate(55.182 36.269)">
		<g id="Group_359" transform="translate(0)">
			<path id="Path_2138" d="M21.1,0H0.8C0.4,0,0,0.4,0,0.8s0.4,0.8,0.8,0.8h20.2c0.5,0,0.8-0.4,0.8-0.8S21.6,0,21.1,0L21.1,0z"/>
		</g>
	</g>
	<g id="Group_362" transform="translate(50.122 31.208)">
		<g id="Group_361" transform="translate(0)">
			<path id="Path_2139" d="M2.5,0H0.8C0.4,0,0,0.4,0,0.8s0.4,0.8,0.8,0.8h1.7c0.5,0,0.8-0.4,0.8-0.8S3,0,2.5,0z"/>
		</g>
	</g>
	<g id="Group_364" transform="translate(55.182 31.208)">
		<g id="Group_363" transform="translate(0)">
			<path id="Path_2140" d="M21.1,0H0.8C0.4,0,0,0.4,0,0.8s0.4,0.8,0.8,0.8h20.2c0.5,0,0.8-0.4,0.8-0.8S21.6,0,21.1,0L21.1,0z"/>
		</g>
	</g>
	<g id="Group_366" transform="translate(50.122 26.147)">
		<g id="Group_365" transform="translate(0)">
			<path id="Path_2141" d="M2.5,0H0.8C0.4,0,0,0.4,0,0.8c0,0.5,0.4,0.8,0.8,0.8l0,0h1.7c0.5,0,0.8-0.4,0.8-0.8C3.4,0.4,3,0,2.5,0z"
				/>
		</g>
	</g>
	<g id="Group_368" transform="translate(55.182 26.147)">
		<g id="Group_367" transform="translate(0)">
			<path id="Path_2142" d="M21.1,0H0.8C0.4,0,0,0.4,0,0.8c0,0.5,0.4,0.8,0.8,0.8l0,0h20.2c0.5,0,0.8-0.4,0.8-0.8
				C21.9,0.4,21.6,0,21.1,0L21.1,0z"/>
		</g>
	</g>
	<g id="Group_370" transform="translate(50.122 21.087)">
		<g id="Group_369" transform="translate(0)">
			<path id="Path_2143" d="M2.5,0H0.8C0.4,0,0,0.4,0,0.8c0,0.5,0.4,0.8,0.8,0.8l0,0h1.7c0.5,0,0.8-0.4,0.8-0.8C3.4,0.4,3,0,2.5,0z"
				/>
		</g>
	</g>
	<g id="Group_372" transform="translate(55.182 21.087)">
		<g id="Group_371" transform="translate(0)">
			<path id="Path_2144" d="M21.1,0H0.8C0.4,0,0,0.4,0,0.8c0,0.5,0.4,0.8,0.8,0.8l0,0h20.2c0.5,0,0.8-0.4,0.8-0.8
				C21.9,0.4,21.6,0,21.1,0L21.1,0z"/>
		</g>
	</g>
	<g id="Group_374" transform="translate(50.122 16.026)">
		<g id="Group_373" transform="translate(0)">
			<path id="Path_2145" d="M2.5,0H0.8C0.4,0,0,0.4,0,0.8c0,0.5,0.4,0.8,0.8,0.8l0,0h1.7c0.5,0,0.8-0.4,0.8-0.8C3.4,0.4,3,0,2.5,0z"
				/>
		</g>
	</g>
	<g id="Group_376" transform="translate(55.182 16.026)">
		<g id="Group_375" transform="translate(0)">
			<path id="Path_2146" d="M21.1,0H0.8C0.4,0,0,0.4,0,0.8c0,0.5,0.4,0.8,0.8,0.8l0,0h20.2c0.5,0,0.8-0.4,0.8-0.8
				C21.9,0.4,21.6,0,21.1,0L21.1,0z"/>
		</g>
	</g>
	<g id="Group_378" transform="translate(40)">
		<g id="Group_377" transform="translate(0)">
			<path id="Path_2147" d="M42.2,12.6c0-0.1,0-0.1,0-0.2c0,0,0-0.1,0-0.1c0-0.1-0.1-0.2-0.2-0.2L30.1,0.2C30,0.2,30,0.1,29.9,0.1
				c0,0-0.1,0-0.1,0c-0.1,0-0.1,0-0.2,0c0,0,0,0,0,0H5.9C5.4,0,5.1,0.4,5.1,0.8v2.5H0.8C0.4,3.4,0,3.8,0,4.2c0,0,0,0,0,0v45.5
				c0,0.5,0.4,0.8,0.8,0.8h35.4c0.5,0,0.8-0.4,0.8-0.8l0,0v-4.2h4.2c0.5,0,0.8-0.4,0.8-0.8L42.2,12.6C42.2,12.6,42.2,12.6,42.2,12.6
				z M30.4,2.9l8.9,8.9h-8.9V2.9z M35.4,48.9H1.7V5.1h3.4v39.6c0,0.5,0.4,0.8,0.8,0.8h29.5L35.4,48.9z M40.5,43.9H6.7V1.7h21.9v11
				c0,0.5,0.4,0.8,0.8,0.8h11L40.5,43.9z"/>
		</g>
	</g>
	<g id="Group_380" transform="translate(50.122 7.591)">
		<g id="Group_379" transform="translate(0)">
			<path id="Path_2148" d="M5.9,0H0.8C0.4,0,0,0.4,0,0.8c0,0,0,0,0,0v5.1c0,0.5,0.4,0.8,0.8,0.8l0,0h5.1c0.5,0,0.8-0.4,0.8-0.8V0.8
				C6.7,0.4,6.4,0,5.9,0z M5.1,5.1H1.7V1.7h3.4V5.1z"/>
		</g>
	</g>
</g>
</svg>
