<svg xmlns="http://www.w3.org/2000/svg" width="42.173" height="50.608" viewBox="0 0 42.173 50.608">
  <g id="document_3_" data-name="document (3)" transform="translate(-40)">
    <g id="Group_358" data-name="Group 358" transform="translate(50.122 36.269)">
      <g id="Group_357" data-name="Group 357" transform="translate(0)">
        <path id="Path_2137" data-name="Path 2137" d="M138.53,344h-1.687a.843.843,0,1,0,0,1.687h1.687a.843.843,0,1,0,0-1.687Z" transform="translate(-136 -344)" fill="#0f946b"/>
      </g>
    </g>
    <g id="Group_360" data-name="Group 360" transform="translate(55.182 36.269)">
      <g id="Group_359" data-name="Group 359" transform="translate(0)">
        <path id="Path_2138" data-name="Path 2138" d="M205.087,344H184.843a.843.843,0,0,0,0,1.687h20.243a.843.843,0,1,0,0-1.687Z" transform="translate(-184 -344)" fill="#0f946b"/>
      </g>
    </g>
    <g id="Group_362" data-name="Group 362" transform="translate(50.122 31.208)">
      <g id="Group_361" data-name="Group 361" transform="translate(0)">
        <path id="Path_2139" data-name="Path 2139" d="M138.53,296h-1.687a.843.843,0,1,0,0,1.687h1.687a.843.843,0,1,0,0-1.687Z" transform="translate(-136 -296)" fill="#0f946b"/>
      </g>
    </g>
    <g id="Group_364" data-name="Group 364" transform="translate(55.182 31.208)">
      <g id="Group_363" data-name="Group 363" transform="translate(0)">
        <path id="Path_2140" data-name="Path 2140" d="M205.087,296H184.843a.843.843,0,0,0,0,1.687h20.243a.843.843,0,1,0,0-1.687Z" transform="translate(-184 -296)" fill="#0f946b"/>
      </g>
    </g>
    <g id="Group_366" data-name="Group 366" transform="translate(50.122 26.147)">
      <g id="Group_365" data-name="Group 365" transform="translate(0)">
        <path id="Path_2141" data-name="Path 2141" d="M138.53,248h-1.687a.843.843,0,1,0,0,1.687h1.687a.843.843,0,0,0,0-1.687Z" transform="translate(-136 -248)" fill="#0f946b"/>
      </g>
    </g>
    <g id="Group_368" data-name="Group 368" transform="translate(55.182 26.147)">
      <g id="Group_367" data-name="Group 367" transform="translate(0)">
        <path id="Path_2142" data-name="Path 2142" d="M205.087,248H184.843a.843.843,0,0,0,0,1.687h20.243a.843.843,0,1,0,0-1.687Z" transform="translate(-184 -248)" fill="#0f946b"/>
      </g>
    </g>
    <g id="Group_370" data-name="Group 370" transform="translate(50.122 21.087)">
      <g id="Group_369" data-name="Group 369" transform="translate(0)">
        <path id="Path_2143" data-name="Path 2143" d="M138.53,200h-1.687a.843.843,0,1,0,0,1.687h1.687a.843.843,0,1,0,0-1.687Z" transform="translate(-136 -200)" fill="#0f946b"/>
      </g>
    </g>
    <g id="Group_372" data-name="Group 372" transform="translate(55.182 21.087)">
      <g id="Group_371" data-name="Group 371" transform="translate(0)">
        <path id="Path_2144" data-name="Path 2144" d="M205.087,200H184.843a.843.843,0,0,0,0,1.687h20.243a.843.843,0,1,0,0-1.687Z" transform="translate(-184 -200)" fill="#0f946b"/>
      </g>
    </g>
    <g id="Group_374" data-name="Group 374" transform="translate(50.122 16.026)">
      <g id="Group_373" data-name="Group 373" transform="translate(0)">
        <path id="Path_2145" data-name="Path 2145" d="M138.53,152h-1.687a.843.843,0,1,0,0,1.687h1.687a.843.843,0,1,0,0-1.687Z" transform="translate(-136 -152)" fill="#0f946b"/>
      </g>
    </g>
    <g id="Group_376" data-name="Group 376" transform="translate(55.182 16.026)">
      <g id="Group_375" data-name="Group 375" transform="translate(0)">
        <path id="Path_2146" data-name="Path 2146" d="M205.087,152H184.843a.843.843,0,0,0,0,1.687h20.243a.843.843,0,1,0,0-1.687Z" transform="translate(-184 -152)" fill="#0f946b"/>
      </g>
    </g>
    <g id="Group_378" data-name="Group 378" transform="translate(40)">
      <g id="Group_377" data-name="Group 377" transform="translate(0)">
        <path id="Path_2147" data-name="Path 2147" d="M82.162,12.6a.8.8,0,0,0-.043-.217c-.009-.027-.016-.053-.028-.079a.843.843,0,0,0-.169-.247L70.114.247a.843.843,0,0,0-.247-.169c-.026-.012-.052-.019-.078-.028A.84.84,0,0,0,69.57.007c-.014,0-.03-.007-.049-.007H45.9a.843.843,0,0,0-.843.843v2.53H40.843A.843.843,0,0,0,40,4.217V49.764a.844.844,0,0,0,.843.843H76.269a.843.843,0,0,0,.843-.843V45.547H81.33a.844.844,0,0,0,.843-.843V12.652C82.173,12.633,82.164,12.617,82.162,12.6ZM70.365,2.88l8.929,8.929H70.365Zm5.061,46.041H41.687V5.061h3.374V44.7a.843.843,0,0,0,.843.843H75.425Zm5.061-5.061H46.748V1.687h21.93V12.652a.844.844,0,0,0,.843.843H80.486Z" transform="translate(-40)" fill="#0f946b"/>
      </g>
    </g>
    <g id="Group_380" data-name="Group 380" transform="translate(50.122 7.591)">
      <g id="Group_379" data-name="Group 379" transform="translate(0)">
        <path id="Path_2148" data-name="Path 2148" d="M141.9,72h-5.061a.843.843,0,0,0-.843.843V77.9a.843.843,0,0,0,.843.843H141.9a.844.844,0,0,0,.843-.843V72.843A.844.844,0,0,0,141.9,72Zm-.843,5.061h-3.374V73.687h3.374Z" transform="translate(-136 -72)" fill="#0f946b"/>
      </g>
    </g>
  </g>
</svg>
